<?xml version="1.0" encoding="UTF-8" standalone="no"?>
<!DOCTYPE svg PUBLIC "-//W3C//DTD SVG 1.1//EN"
 "http://www.w3.org/Graphics/SVG/1.1/DTD/svg11.dtd">
<!-- Generated by graphviz version 2.43.0 (0)
 -->
<!-- Title: TrumpZelenskyyPost Pages: 1 -->
<svg width="1804pt" height="470pt"
 viewBox="0.00 0.00 1804.27 469.60" xmlns="http://www.w3.org/2000/svg" xmlns:xlink="http://www.w3.org/1999/xlink">
<g id="graph0" class="graph" transform="scale(1 1) rotate(0) translate(4 465.6)">
<title>TrumpZelenskyyPost</title>
<polygon fill="white" stroke="transparent" points="-4,4 -4,-465.6 1800.27,-465.6 1800.27,4 -4,4"/>
<!-- Trump -->
<g id="node1" class="node">
<title>Trump</title>
<ellipse fill="none" stroke="black" cx="93.34" cy="-424.12" rx="93.18" ry="37.45"/>
<text text-anchor="middle" x="93.34" y="-435.42" font-family="Times,serif" font-size="14.00">Donald J. Trump</text>
<text text-anchor="middle" x="93.34" y="-420.42" font-family="Times,serif" font-size="14.00">US President</text>
<text text-anchor="middle" x="93.34" y="-405.42" font-family="Times,serif" font-size="14.00">2025</text>
</g>
<!-- Zelenskyy -->
<g id="node2" class="node">
<title>Zelenskyy</title>
<ellipse fill="none" stroke="black" cx="512.34" cy="-424.12" rx="119.5" ry="26.74"/>
<text text-anchor="middle" x="512.34" y="-427.92" font-family="Times,serif" font-size="14.00">Volodymyr Zelenskyy</text>
<text text-anchor="middle" x="512.34" y="-412.92" font-family="Times,serif" font-size="14.00">President of Ukraine</text>
</g>
<!-- Trump&#45;&gt;Zelenskyy -->
<g id="edge1" class="edge">
<title>Trump&#45;&gt;Zelenskyy</title>
<path fill="none" stroke="black" d="M186.85,-424.12C244.54,-424.12 319.37,-424.12 382.73,-424.12"/>
<polygon fill="black" stroke="black" points="382.8,-427.62 392.8,-424.12 382.8,-420.62 382.8,-427.62"/>
<text text-anchor="middle" x="289.76" y="-445.92" font-family="Times,serif" font-size="14.00">Met Feb 28, 2025</text>
<text text-anchor="middle" x="289.76" y="-430.92" font-family="Times,serif" font-size="14.00">Strained over peace views</text>
</g>
<!-- USA -->
<g id="node3" class="node">
<title>USA</title>
<ellipse fill="none" stroke="black" cx="323.34" cy="-131.61" rx="75.29" ry="18"/>
<text text-anchor="middle" x="323.34" y="-127.91" font-family="Times,serif" font-size="14.00">United States</text>
</g>
<!-- Trump&#45;&gt;USA -->
<g id="edge2" class="edge">
<title>Trump&#45;&gt;USA</title>
<path fill="none" stroke="black" d="M84.15,-386.45C75.66,-343.53 68.87,-272.27 102.34,-224.48 135.64,-176.94 198.4,-153.93 248.55,-142.83"/>
<polygon fill="black" stroke="black" points="249.33,-146.24 258.4,-140.77 247.9,-139.39 249.33,-146.24"/>
<text text-anchor="middle" x="137.34" y="-276.36" font-family="Times,serif" font-size="14.00">President</text>
<text text-anchor="middle" x="137.34" y="-261.36" font-family="Times,serif" font-size="14.00">2025</text>
</g>
<!-- WhiteHouse -->
<g id="node5" class="node">
<title>WhiteHouse</title>
<ellipse fill="none" stroke="black" cx="323.34" cy="-272.56" rx="142.26" ry="48.17"/>
<text text-anchor="middle" x="323.34" y="-291.36" font-family="Times,serif" font-size="14.00">White House</text>
<text text-anchor="middle" x="323.34" y="-276.36" font-family="Times,serif" font-size="14.00">Oval Office</text>
<text text-anchor="middle" x="323.34" y="-261.36" font-family="Times,serif" font-size="14.00">Washington, D.C.</text>
<text text-anchor="middle" x="323.34" y="-246.36" font-family="Times,serif" font-size="14.00">(38.8977° N, 77.0365° W)</text>
</g>
<!-- Trump&#45;&gt;WhiteHouse -->
<g id="edge3" class="edge">
<title>Trump&#45;&gt;WhiteHouse</title>
<path fill="none" stroke="black" d="M141.27,-391.95C172.84,-371.43 214.77,-344.16 250.44,-320.97"/>
<polygon fill="black" stroke="black" points="252.41,-323.86 258.88,-315.48 248.59,-317.99 252.41,-323.86"/>
<text text-anchor="middle" x="274.84" y="-357.45" font-family="Times,serif" font-size="14.00">Hosts meeting</text>
<text text-anchor="middle" x="274.84" y="-342.45" font-family="Times,serif" font-size="14.00">Feb 28, 2025</text>
</g>
<!-- Zelenskyy&#45;&gt;Trump -->
<g id="edge5" class="edge">
<title>Zelenskyy&#45;&gt;Trump</title>
<path fill="none" stroke="black" d="M435.98,-403.33C414.12,-398.3 390.14,-393.65 367.76,-391.12 333.31,-387.24 246.1,-386.43 211.76,-391.12 200.03,-392.73 187.82,-395.19 175.9,-398.05"/>
<polygon fill="black" stroke="black" points="174.81,-394.72 165.96,-400.55 176.51,-401.51 174.81,-394.72"/>
<text text-anchor="middle" x="289.76" y="-409.92" font-family="Times,serif" font-size="14.00">Accused of disrespect</text>
<text text-anchor="middle" x="289.76" y="-394.92" font-family="Times,serif" font-size="14.00">Feb 28, 2025</text>
</g>
<!-- Ukraine -->
<g id="node6" class="node">
<title>Ukraine</title>
<ellipse fill="none" stroke="black" cx="951.34" cy="-131.61" rx="139.1" ry="26.74"/>
<text text-anchor="middle" x="951.34" y="-135.41" font-family="Times,serif" font-size="14.00">Ukraine</text>
<text text-anchor="middle" x="951.34" y="-120.41" font-family="Times,serif" font-size="14.00">(48.3794° N, 31.1656° E)</text>
</g>
<!-- Zelenskyy&#45;&gt;Ukraine -->
<g id="edge4" class="edge">
<title>Zelenskyy&#45;&gt;Ukraine</title>
<path fill="none" stroke="black" d="M505.58,-397.12C496.73,-357.28 485.58,-279.95 515.34,-224.48 533.17,-191.24 550.04,-189.78 585.34,-176.48 625.95,-161.18 726.26,-149.78 811.62,-142.44"/>
<polygon fill="black" stroke="black" points="812.01,-145.92 821.68,-141.59 811.42,-138.95 812.01,-145.92"/>
<text text-anchor="middle" x="577.34" y="-268.86" font-family="Times,serif" font-size="14.00">Leads since 2022</text>
</g>
<!-- Russia -->
<g id="node4" class="node">
<title>Russia</title>
<ellipse fill="none" stroke="black" cx="584.34" cy="-131.61" rx="41.69" ry="18"/>
<text text-anchor="middle" x="584.34" y="-127.91" font-family="Times,serif" font-size="14.00">Russia</text>
</g>
<!-- USA&#45;&gt;Russia -->
<g id="edge17" class="edge">
<title>USA&#45;&gt;Russia</title>
<path fill="none" stroke="black" d="M398.83,-131.61C441.63,-131.61 494.09,-131.61 532.29,-131.61"/>
<polygon fill="black" stroke="black" points="532.66,-135.11 542.66,-131.61 532.66,-128.11 532.66,-135.11"/>
<text text-anchor="middle" x="470.74" y="-153.41" font-family="Times,serif" font-size="14.00">Seeks peace talks</text>
<text text-anchor="middle" x="470.74" y="-138.41" font-family="Times,serif" font-size="14.00">2025</text>
</g>
<!-- USA&#45;&gt;Ukraine -->
<g id="edge6" class="edge">
<title>USA&#45;&gt;Ukraine</title>
<path fill="none" stroke="black" d="M363.6,-146.84C431.63,-170.75 573.82,-212.86 695.34,-197.48 755.2,-189.9 821.1,-172.73 871.05,-157.82"/>
<polygon fill="black" stroke="black" points="872.26,-161.11 880.82,-154.87 870.23,-154.41 872.26,-161.11"/>
<text text-anchor="middle" x="642.34" y="-195.28" font-family="Times,serif" font-size="14.00">Aid since 2022</text>
<text text-anchor="middle" x="642.34" y="-180.28" font-family="Times,serif" font-size="14.00">$69B military</text>
</g>
<!-- Russia&#45;&gt;Ukraine -->
<g id="edge8" class="edge">
<title>Russia&#45;&gt;Ukraine</title>
<path fill="none" stroke="black" d="M615.95,-119.86C624.3,-117.28 633.38,-114.92 641.99,-113.61 709.65,-103.29 727.66,-109.66 795.99,-113.61 805.44,-114.16 815.2,-114.89 825.02,-115.74"/>
<polygon fill="black" stroke="black" points="824.97,-119.25 835.25,-116.68 825.61,-112.28 824.97,-119.25"/>
<text text-anchor="middle" x="718.99" y="-117.41" font-family="Times,serif" font-size="14.00">Invades Feb 24, 2022</text>
</g>
<!-- Bakhmut -->
<g id="node11" class="node">
<title>Bakhmut</title>
<ellipse fill="none" stroke="black" cx="139.34" cy="-26.87" rx="139.1" ry="26.74"/>
<text text-anchor="middle" x="139.34" y="-30.67" font-family="Times,serif" font-size="14.00">Bakhmut</text>
<text text-anchor="middle" x="139.34" y="-15.67" font-family="Times,serif" font-size="14.00">(48.5956° N, 38.0009° E)</text>
</g>
<!-- Russia&#45;&gt;Bakhmut -->
<g id="edge9" class="edge">
<title>Russia&#45;&gt;Bakhmut</title>
<path fill="none" stroke="black" d="M546.23,-124.18C500.81,-116.3 422.71,-102.1 356.34,-86.74 312.42,-76.57 263.97,-63.6 224.01,-52.42"/>
<polygon fill="black" stroke="black" points="224.88,-49.03 214.31,-49.69 222.99,-55.77 224.88,-49.03"/>
<text text-anchor="middle" x="427.34" y="-75.54" font-family="Times,serif" font-size="14.00">Captures May 2023</text>
</g>
<!-- Pokrovsk -->
<g id="node12" class="node">
<title>Pokrovsk</title>
<ellipse fill="none" stroke="black" cx="436.34" cy="-26.87" rx="139.1" ry="26.74"/>
<text text-anchor="middle" x="436.34" y="-30.67" font-family="Times,serif" font-size="14.00">Pokrovsk</text>
<text text-anchor="middle" x="436.34" y="-15.67" font-family="Times,serif" font-size="14.00">(48.2828° N, 37.1758° E)</text>
</g>
<!-- Russia&#45;&gt;Pokrovsk -->
<g id="edge11" class="edge">
<title>Russia&#45;&gt;Pokrovsk</title>
<path fill="none" stroke="black" d="M563.13,-115.89C541.69,-101.01 507.91,-77.56 480.61,-58.6"/>
<polygon fill="black" stroke="black" points="482.58,-55.71 472.37,-52.88 478.58,-61.46 482.58,-55.71"/>
<text text-anchor="middle" x="593.84" y="-75.54" font-family="Times,serif" font-size="14.00">Advances 2024&#45;2025</text>
</g>
<!-- Kurakhove -->
<g id="node13" class="node">
<title>Kurakhove</title>
<ellipse fill="none" stroke="black" cx="733.34" cy="-26.87" rx="139.1" ry="26.74"/>
<text text-anchor="middle" x="733.34" y="-30.67" font-family="Times,serif" font-size="14.00">Kurakhove</text>
<text text-anchor="middle" x="733.34" y="-15.67" font-family="Times,serif" font-size="14.00">(47.9852° N, 37.2875° E)</text>
</g>
<!-- Russia&#45;&gt;Kurakhove -->
<g id="edge10" class="edge">
<title>Russia&#45;&gt;Kurakhove</title>
<path fill="none" stroke="black" d="M613.73,-118.68C631.46,-110.83 654.07,-99.64 672.34,-86.74 683.06,-79.17 693.71,-69.73 703.04,-60.64"/>
<polygon fill="black" stroke="black" points="705.62,-63.02 710.22,-53.47 700.67,-58.06 705.62,-63.02"/>
<text text-anchor="middle" x="762.34" y="-75.54" font-family="Times,serif" font-size="14.00">Captures Late 2024</text>
</g>
<!-- Kharkiv -->
<g id="node14" class="node">
<title>Kharkiv</title>
<ellipse fill="none" stroke="black" cx="1030.34" cy="-26.87" rx="139.1" ry="26.74"/>
<text text-anchor="middle" x="1030.34" y="-30.67" font-family="Times,serif" font-size="14.00">Kharkiv</text>
<text text-anchor="middle" x="1030.34" y="-15.67" font-family="Times,serif" font-size="14.00">(50.0040° N, 36.2315° E)</text>
</g>
<!-- Russia&#45;&gt;Kharkiv -->
<g id="edge12" class="edge">
<title>Russia&#45;&gt;Kharkiv</title>
<path fill="none" stroke="black" d="M623.65,-125.34C673.67,-118.28 762.53,-104.56 837.34,-86.74 876.12,-77.5 918.56,-64.84 953.74,-53.63"/>
<polygon fill="black" stroke="black" points="955.01,-56.9 963.46,-50.51 952.87,-50.23 955.01,-56.9"/>
<text text-anchor="middle" x="962.84" y="-75.54" font-family="Times,serif" font-size="14.00">Offensive May 2024</text>
</g>
<!-- WhiteHouse&#45;&gt;USA -->
<g id="edge18" class="edge">
<title>WhiteHouse&#45;&gt;USA</title>
<path fill="none" stroke="black" d="M323.34,-224.13C323.34,-202.81 323.34,-178.39 323.34,-160.14"/>
<polygon fill="black" stroke="black" points="326.84,-159.92 323.34,-149.92 319.84,-159.92 326.84,-159.92"/>
<text text-anchor="middle" x="373.34" y="-187.78" font-family="Times,serif" font-size="14.00">Seat of power</text>
</g>
<!-- Ukraine&#45;&gt;Russia -->
<g id="edge7" class="edge">
<title>Ukraine&#45;&gt;Russia</title>
<path fill="none" stroke="black" d="M811.66,-131.61C750.24,-131.61 681.86,-131.61 636.3,-131.61"/>
<polygon fill="black" stroke="black" points="636.08,-128.11 626.08,-131.61 636.08,-135.11 636.08,-128.11"/>
<text text-anchor="middle" x="718.99" y="-138.41" font-family="Times,serif" font-size="14.00">War since Feb 24, 2022</text>
</g>
<!-- Germany -->
<g id="node7" class="node">
<title>Germany</title>
<ellipse fill="none" stroke="black" cx="787.34" cy="-272.56" rx="139.1" ry="26.74"/>
<text text-anchor="middle" x="787.34" y="-276.36" font-family="Times,serif" font-size="14.00">Germany</text>
<text text-anchor="middle" x="787.34" y="-261.36" font-family="Times,serif" font-size="14.00">(51.1657° N, 10.4515° E)</text>
</g>
<!-- Germany&#45;&gt;Ukraine -->
<g id="edge13" class="edge">
<title>Germany&#45;&gt;Ukraine</title>
<path fill="none" stroke="black" d="M817.42,-246.08C844.47,-223.16 884.32,-189.4 913.52,-164.66"/>
<polygon fill="black" stroke="black" points="916.08,-167.07 921.45,-157.93 911.56,-161.73 916.08,-167.07"/>
<text text-anchor="middle" x="937.84" y="-195.28" font-family="Times,serif" font-size="14.00">Aid $13.6B</text>
<text text-anchor="middle" x="937.84" y="-180.28" font-family="Times,serif" font-size="14.00">2022&#45;2025</text>
</g>
<!-- UK -->
<g id="node8" class="node">
<title>UK</title>
<ellipse fill="none" stroke="black" cx="1080.34" cy="-272.56" rx="135.53" ry="26.74"/>
<text text-anchor="middle" x="1080.34" y="-276.36" font-family="Times,serif" font-size="14.00">United Kingdom</text>
<text text-anchor="middle" x="1080.34" y="-261.36" font-family="Times,serif" font-size="14.00">(51.5074° N, 0.1278° W)</text>
</g>
<!-- UK&#45;&gt;Ukraine -->
<g id="edge14" class="edge">
<title>UK&#45;&gt;Ukraine</title>
<path fill="none" stroke="black" d="M1056.68,-246.08C1035.72,-223.5 1004.98,-190.39 982.11,-165.76"/>
<polygon fill="black" stroke="black" points="984.65,-163.35 975.29,-158.41 979.52,-168.12 984.65,-163.35"/>
<text text-anchor="middle" x="1059.84" y="-195.28" font-family="Times,serif" font-size="14.00">Aid $10.8B</text>
<text text-anchor="middle" x="1059.84" y="-180.28" font-family="Times,serif" font-size="14.00">2022&#45;2025</text>
</g>
<!-- Poland -->
<g id="node9" class="node">
<title>Poland</title>
<ellipse fill="none" stroke="black" cx="1373.34" cy="-272.56" rx="139.1" ry="26.74"/>
<text text-anchor="middle" x="1373.34" y="-276.36" font-family="Times,serif" font-size="14.00">Poland</text>
<text text-anchor="middle" x="1373.34" y="-261.36" font-family="Times,serif" font-size="14.00">(51.9194° N, 19.1451° E)</text>
</g>
<!-- Poland&#45;&gt;Ukraine -->
<g id="edge15" class="edge">
<title>Poland&#45;&gt;Ukraine</title>
<path fill="none" stroke="black" d="M1310.94,-248.44C1256.44,-228.52 1175.04,-199.43 1103.34,-176.48 1082.47,-169.8 1059.84,-163.02 1038.59,-156.86"/>
<polygon fill="black" stroke="black" points="1039.5,-153.48 1028.93,-154.07 1037.56,-160.21 1039.5,-153.48"/>
<text text-anchor="middle" x="1243.84" y="-195.28" font-family="Times,serif" font-size="14.00">Aid $3&#45;6B</text>
<text text-anchor="middle" x="1243.84" y="-180.28" font-family="Times,serif" font-size="14.00">Logistical hub</text>
</g>
<!-- France -->
<g id="node10" class="node">
<title>France</title>
<ellipse fill="none" stroke="black" cx="1663.34" cy="-272.56" rx="132.87" ry="26.74"/>
<text text-anchor="middle" x="1663.34" y="-276.36" font-family="Times,serif" font-size="14.00">France</text>
<text text-anchor="middle" x="1663.34" y="-261.36" font-family="Times,serif" font-size="14.00">(48.8566° N, 2.3522° E)</text>
</g>
<!-- France&#45;&gt;Ukraine -->
<g id="edge16" class="edge">
<title>France&#45;&gt;Ukraine</title>
<path fill="none" stroke="black" d="M1599.81,-248.87C1575.45,-240.6 1547.27,-231.55 1521.34,-224.48 1373.92,-184.3 1199.97,-159.4 1083.35,-145.83"/>
<polygon fill="black" stroke="black" points="1083.63,-142.34 1073.3,-144.67 1082.83,-149.29 1083.63,-142.34"/>
<text text-anchor="middle" x="1483.84" y="-195.28" font-family="Times,serif" font-size="14.00">Aid $2&#45;4B</text>
<text text-anchor="middle" x="1483.84" y="-180.28" font-family="Times,serif" font-size="14.00">2022&#45;2025</text>
</g>
</g>
</svg>
