<?xml version="1.0" encoding="UTF-8" standalone="no"?>
<!DOCTYPE svg PUBLIC "-//W3C//DTD SVG 1.1//EN"
 "http://www.w3.org/Graphics/SVG/1.1/DTD/svg11.dtd">
<!-- Generated by graphviz version 2.43.0 (0)
 -->
<!-- Title: SpringAutumn Pages: 1 -->
<svg width="889pt" height="596pt"
 viewBox="0.00 0.00 889.26 596.22" xmlns="http://www.w3.org/2000/svg" xmlns:xlink="http://www.w3.org/1999/xlink">
<g id="graph0" class="graph" transform="scale(1 1) rotate(0) translate(4 592.22)">
<title>SpringAutumn</title>
<polygon fill="white" stroke="transparent" points="-4,4 -4,-592.22 885.26,-592.22 885.26,4 -4,4"/>
<!-- 周天子 -->
<g id="node1" class="node">
<title>周天子</title>
<ellipse fill="lightyellow" stroke="yellow" cx="272.87" cy="-352.07" rx="38.19" ry="38.19"/>
<text text-anchor="middle" x="272.87" y="-348.37" font-family="SimSun" font-size="14.00">周天子</text>
</g>
<!-- 秦 -->
<g id="node2" class="node">
<title>秦</title>
<ellipse fill="pink" stroke="darkred" cx="20.15" cy="-326.87" rx="20.3" ry="20.3"/>
<text text-anchor="middle" x="20.15" y="-323.17" font-family="SimSun" font-size="14.00">秦</text>
</g>
<!-- 秦&#45;&gt;周天子 -->
<g id="edge16" class="edge">
<title>秦&#45;&gt;周天子</title>
<path fill="none" stroke="darkred" stroke-dasharray="5,2" d="M40.4,-328.89C81.14,-332.95 173.79,-342.19 229.04,-347.7"/>
<polygon fill="darkred" stroke="darkred" points="229.11,-349.46 234.26,-348.22 229.46,-345.98 229.11,-349.46"/>
<text text-anchor="middle" x="120.22" y="-342.09" font-family="Times,serif" font-size="14.00">朝贡</text>
</g>
<!-- 晋 -->
<g id="node5" class="node">
<title>晋</title>
<ellipse fill="lightgreen" stroke="green" cx="359.27" cy="-568.07" rx="20.3" ry="20.3"/>
<text text-anchor="middle" x="359.27" y="-564.37" font-family="SimSun" font-size="14.00">晋</text>
</g>
<!-- 秦&#45;&gt;晋 -->
<g id="edge10" class="edge">
<title>秦&#45;&gt;晋</title>
<path fill="none" stroke="darkred" d="M36.97,-338.83C93.48,-379.02 276.48,-509.19 338.5,-553.29"/>
<polygon fill="darkred" stroke="darkred" points="337.66,-554.85 342.75,-556.32 339.69,-552 337.66,-554.85"/>
<text text-anchor="middle" x="173.23" y="-449.86" font-family="Times,serif" font-size="14.00">联盟</text>
</g>
<!-- 齐 -->
<g id="node3" class="node">
<title>齐</title>
<ellipse fill="lightyellow" stroke="gold" cx="694.79" cy="-510.47" rx="20.3" ry="20.3"/>
<text text-anchor="middle" x="694.79" y="-506.77" font-family="SimSun" font-size="14.00">齐</text>
</g>
<!-- 齐&#45;&gt;周天子 -->
<g id="edge17" class="edge">
<title>齐&#45;&gt;周天子</title>
<path fill="none" stroke="gold" stroke-dasharray="5,2" d="M675.84,-503.35C611.87,-479.34 402.92,-400.89 313.77,-367.42"/>
<polygon fill="gold" stroke="gold" points="314.14,-365.69 308.84,-365.57 312.91,-368.97 314.14,-365.69"/>
<text text-anchor="middle" x="480.3" y="-439.19" font-family="Times,serif" font-size="14.00">朝贡</text>
</g>
<!-- 齐&#45;&gt;晋 -->
<g id="edge11" class="edge">
<title>齐&#45;&gt;晋</title>
<path fill="none" stroke="gold" stroke-dasharray="1,5" d="M674.8,-513.9C616.76,-523.86 448.25,-552.79 384.29,-563.77"/>
<polygon fill="gold" stroke="gold" points="383.78,-562.08 379.15,-564.66 384.37,-565.53 383.78,-562.08"/>
<text text-anchor="middle" x="515.05" y="-542.64" font-family="Times,serif" font-size="14.00">竞争</text>
</g>
<!-- 楚 -->
<g id="node4" class="node">
<title>楚</title>
<ellipse fill="lightgreen" stroke="darkgreen" cx="257.75" cy="-43.19" rx="20.3" ry="20.3"/>
<text text-anchor="middle" x="257.75" y="-39.49" font-family="SimSun" font-size="14.00">楚</text>
</g>
<!-- 楚&#45;&gt;周天子 -->
<g id="edge15" class="edge">
<title>楚&#45;&gt;周天子</title>
<path fill="none" stroke="darkgreen" stroke-dasharray="1,5" d="M258.74,-63.45C261.16,-112.9 267.41,-240.61 270.73,-308.36"/>
<polygon fill="darkgreen" stroke="darkgreen" points="268.99,-308.63 270.98,-313.53 272.49,-308.45 268.99,-308.63"/>
<text text-anchor="middle" x="250.23" y="-189.71" font-family="Times,serif" font-size="14.00">竞争</text>
</g>
<!-- 晋&#45;&gt;周天子 -->
<g id="edge13" class="edge">
<title>晋&#45;&gt;周天子</title>
<path fill="none" stroke="green" stroke-dasharray="5,2" d="M351.75,-549.28C337.86,-514.55 307.87,-439.58 289.14,-392.74"/>
<polygon fill="green" stroke="green" points="290.73,-392.01 287.25,-388.01 287.48,-393.31 290.73,-392.01"/>
<text text-anchor="middle" x="305.94" y="-474.81" font-family="Times,serif" font-size="14.00">朝贡</text>
</g>
<!-- 虞 -->
<g id="node6" class="node">
<title>虞</title>
<ellipse fill="lightgray" stroke="gray" cx="223.91" cy="-492.47" rx="20.3" ry="20.3"/>
<text text-anchor="middle" x="223.91" y="-488.77" font-family="SimSun" font-size="14.00">虞</text>
</g>
<!-- 晋&#45;&gt;虞 -->
<g id="edge4" class="edge">
<title>晋&#45;&gt;虞</title>
<path fill="none" stroke="darkgreen" stroke-dasharray="1,5" d="M341.57,-558.18C317.05,-544.49 272.74,-519.74 246.06,-504.84"/>
<polygon fill="darkgreen" stroke="darkgreen" points="246.83,-503.26 241.61,-502.35 245.12,-506.32 246.83,-503.26"/>
<text text-anchor="middle" x="279.31" y="-535.31" font-family="Times,serif" font-size="14.00">贿赂</text>
</g>
<!-- 夏阳 -->
<g id="node13" class="node">
<title>夏阳</title>
<ellipse fill="lightpink" stroke="red" cx="168.47" cy="-379.43" rx="29.5" ry="29.5"/>
<text text-anchor="middle" x="168.47" y="-375.73" font-family="SimSun" font-size="14.00">夏阳</text>
</g>
<!-- 晋&#45;&gt;夏阳 -->
<g id="edge1" class="edge">
<title>晋&#45;&gt;夏阳</title>
<path fill="none" stroke="blue" stroke-width="2" d="M344.93,-553.89C312.6,-521.93 233.74,-443.96 193.29,-403.97"/>
<polygon fill="blue" stroke="blue" stroke-width="2" points="194.28,-402.49 189.49,-400.22 191.82,-404.98 194.28,-402.49"/>
<text text-anchor="middle" x="269.11" y="-467.73" font-family="Times,serif" font-size="14.00">借道伐虢</text>
</g>
<!-- 虢 -->
<g id="node7" class="node">
<title>虢</title>
<ellipse fill="lightgray" stroke="gray" cx="162.71" cy="-344.87" rx="20.3" ry="20.3"/>
<text text-anchor="middle" x="162.71" y="-341.17" font-family="SimSun" font-size="14.00">虢</text>
</g>
<!-- 虞&#45;&gt;虢 -->
<g id="edge5" class="edge">
<title>虞&#45;&gt;虢</title>
<path fill="none" stroke="red" stroke-dasharray="1,5" d="M216.16,-473.77C205.09,-447.08 184.76,-398.05 172.61,-368.75"/>
<polygon fill="red" stroke="red" points="174.12,-367.82 170.59,-363.88 170.89,-369.17 174.12,-367.82"/>
<text text-anchor="middle" x="165.38" y="-425.06" font-family="Times,serif" font-size="14.00">唇亡齿寒</text>
</g>
<!-- 虞&#45;&gt;夏阳 -->
<g id="edge2" class="edge">
<title>虞&#45;&gt;夏阳</title>
<path fill="none" stroke="blue" stroke-width="2" d="M215,-474.31C206.58,-457.13 193.77,-431.01 183.72,-410.52"/>
<polygon fill="blue" stroke="blue" stroke-width="2" points="185.26,-409.69 181.49,-405.98 182.12,-411.24 185.26,-409.69"/>
<text text-anchor="middle" x="213.86" y="-446.21" font-family="Times,serif" font-size="14.00">借道</text>
</g>
<!-- 虢&#45;&gt;夏阳 -->
<g id="edge3" class="edge">
<title>虢&#45;&gt;夏阳</title>
<path fill="none" stroke="red" stroke-dasharray="5,2" d="M166.06,-364.97C166.07,-365.03 166.08,-365.09 166.09,-365.15"/>
<polygon fill="red" stroke="red" points="163.57,-360.68 166.12,-365.33 167.02,-360.11 163.57,-360.68"/>
<text text-anchor="middle" x="151.57" y="-368.86" font-family="Times,serif" font-size="14.00">塞邑</text>
</g>
<!-- 郑 -->
<g id="node8" class="node">
<title>郑</title>
<ellipse fill="lightblue" stroke="lightblue" cx="365.75" cy="-341.99" rx="20.3" ry="20.3"/>
<text text-anchor="middle" x="365.75" y="-338.29" font-family="SimSun" font-size="14.00">郑</text>
</g>
<!-- 郑&#45;&gt;周天子 -->
<g id="edge12" class="edge">
<title>郑&#45;&gt;周天子</title>
<path fill="none" stroke="lightblue" stroke-dasharray="5,2" d="M345.59,-344.18C336.97,-345.11 326.55,-346.24 316.33,-347.35"/>
<polygon fill="lightblue" stroke="lightblue" points="316.11,-345.61 311.33,-347.89 316.49,-349.09 316.11,-345.61"/>
<text text-anchor="middle" x="330.96" y="-334.56" font-family="Times,serif" font-size="14.00">朝贡</text>
</g>
<!-- 鲁 -->
<g id="node9" class="node">
<title>鲁</title>
<ellipse fill="lightgreen" stroke="green" cx="612.41" cy="-387.61" rx="20.3" ry="20.3"/>
<text text-anchor="middle" x="612.41" y="-383.91" font-family="SimSun" font-size="14.00">鲁</text>
</g>
<!-- 鲁&#45;&gt;周天子 -->
<g id="edge14" class="edge">
<title>鲁&#45;&gt;周天子</title>
<path fill="none" stroke="green" stroke-dasharray="5,2" d="M592.18,-385.49C538.3,-379.85 390.33,-364.36 316.27,-356.61"/>
<polygon fill="green" stroke="green" points="316.23,-354.85 311.07,-356.07 315.86,-358.33 316.23,-354.85"/>
<text text-anchor="middle" x="439.73" y="-374.85" font-family="Times,serif" font-size="14.00">朝贡</text>
</g>
<!-- 曲阜 -->
<g id="node10" class="node">
<title>曲阜</title>
<ellipse fill="lightgreen" stroke="lime" cx="599.75" cy="-422.63" rx="29.5" ry="29.5"/>
<text text-anchor="middle" x="599.75" y="-418.93" font-family="SimSun" font-size="14.00">曲阜</text>
</g>
<!-- 鲁&#45;&gt;曲阜 -->
<g id="edge6" class="edge">
<title>鲁&#45;&gt;曲阜</title>
<path fill="none" stroke="green" d="M605.48,-406.76C605.46,-406.82 605.44,-406.88 605.42,-406.95"/>
<polygon fill="green" stroke="green" points="605.4,-401.84 605.35,-407.14 608.69,-403.03 605.4,-401.84"/>
<text text-anchor="middle" x="619.95" y="-410.65" font-family="Times,serif" font-size="14.00">核心</text>
</g>
<!-- 吴 -->
<g id="node11" class="node">
<title>吴</title>
<ellipse fill="lightyellow" stroke="darkorange" cx="861.11" cy="-113.75" rx="20.3" ry="20.3"/>
<text text-anchor="middle" x="861.11" y="-110.05" font-family="SimSun" font-size="14.00">吴</text>
</g>
<!-- 吴&#45;&gt;楚 -->
<g id="edge7" class="edge">
<title>吴&#45;&gt;楚</title>
<path fill="none" stroke="darkorange" stroke-dasharray="1,5" d="M841.03,-111.4C750.84,-100.85 383.11,-57.85 283.01,-46.14"/>
<polygon fill="darkorange" stroke="darkorange" points="283.07,-44.39 277.9,-45.54 282.66,-47.86 283.07,-44.39"/>
<text text-anchor="middle" x="547.52" y="-82.57" font-family="Times,serif" font-size="14.00">敌对</text>
</g>
<!-- 越 -->
<g id="node12" class="node">
<title>越</title>
<ellipse fill="lightblue" stroke="teal" cx="858.23" cy="-20.15" rx="20.3" ry="20.3"/>
<text text-anchor="middle" x="858.23" y="-16.45" font-family="SimSun" font-size="14.00">越</text>
</g>
<!-- 吴&#45;&gt;越 -->
<g id="edge9" class="edge">
<title>吴&#45;&gt;越</title>
<path fill="none" stroke="darkorange" stroke-dasharray="1,5" d="M860.48,-93.44C860.05,-79.46 859.48,-60.77 859.02,-45.76"/>
<polygon fill="darkorange" stroke="darkorange" points="860.75,-45.36 858.85,-40.42 857.26,-45.47 860.75,-45.36"/>
<text text-anchor="middle" x="845.25" y="-73.4" font-family="Times,serif" font-size="14.00">敌对</text>
</g>
<!-- 越&#45;&gt;楚 -->
<g id="edge8" class="edge">
<title>越&#45;&gt;楚</title>
<path fill="none" stroke="teal" stroke-dasharray="1,5" d="M837.91,-20.93C747.64,-24.39 383.07,-38.38 283.17,-42.21"/>
<polygon fill="teal" stroke="teal" points="283,-40.47 278.07,-42.41 283.13,-43.97 283,-40.47"/>
<text text-anchor="middle" x="546.04" y="-35.37" font-family="Times,serif" font-size="14.00">敌对</text>
</g>
</g>
</svg>
