<?xml version="1.0" encoding="UTF-8" standalone="no"?>
<!DOCTYPE svg PUBLIC "-//W3C//DTD SVG 1.1//EN"
 "http://www.w3.org/Graphics/SVG/1.1/DTD/svg11.dtd">
<!-- Generated by graphviz version 2.43.0 (0)
 -->
<!-- Title: %3 Pages: 1 -->
<svg width="1148pt" height="880pt"
 viewBox="0.00 0.00 1148.00 880.00" xmlns="http://www.w3.org/2000/svg" xmlns:xlink="http://www.w3.org/1999/xlink">
<g id="graph0" class="graph" transform="scale(1 1) rotate(0) translate(4 876)">
<title>%3</title>
<polygon fill="white" stroke="transparent" points="-4,4 -4,-876 1144,-876 1144,4 -4,4"/>
<!-- 秦穆公 -->
<g id="node1" class="node">
<title>秦穆公</title>
<ellipse fill="none" stroke="black" cx="912.14" cy="-573.28" rx="83.39" ry="18"/>
<text text-anchor="middle" x="912.14" y="-569.58" font-family="Times,serif" font-size="14.00">Duke Mu of Qin</text>
</g>
<!-- 由余 -->
<g id="node6" class="node">
<title>由余</title>
<ellipse fill="none" stroke="black" cx="1016.93" cy="-395.45" rx="41.69" ry="18"/>
<text text-anchor="middle" x="1016.93" y="-391.75" font-family="Times,serif" font-size="14.00">You Yu</text>
</g>
<!-- 秦穆公&#45;&gt;由余 -->
<g id="edge1" class="edge">
<title>秦穆公&#45;&gt;由余</title>
<path fill="none" stroke="black" d="M922.77,-555.25C941.38,-523.67 979.94,-458.22 1001.5,-421.64"/>
<polygon fill="black" stroke="black" points="1004.53,-423.39 1006.59,-413 998.5,-419.84 1004.53,-423.39"/>
</g>
<!-- 百里奚 -->
<g id="node7" class="node">
<title>百里奚</title>
<ellipse fill="none" stroke="black" cx="722.92" cy="-491.77" rx="44.39" ry="18"/>
<text text-anchor="middle" x="722.92" y="-488.07" font-family="Times,serif" font-size="14.00">Baili Xi</text>
</g>
<!-- 秦穆公&#45;&gt;百里奚 -->
<g id="edge2" class="edge">
<title>秦穆公&#45;&gt;百里奚</title>
<path fill="none" stroke="black" d="M874.76,-557.18C842.41,-543.24 795.76,-523.15 762.72,-508.91"/>
<polygon fill="black" stroke="black" points="763.93,-505.62 753.36,-504.88 761.16,-512.05 763.93,-505.62"/>
</g>
<!-- 蹇叔 -->
<g id="node8" class="node">
<title>蹇叔</title>
<ellipse fill="none" stroke="black" cx="777.87" cy="-745.14" rx="49.29" ry="18"/>
<text text-anchor="middle" x="777.87" y="-741.44" font-family="Times,serif" font-size="14.00">Jian Shu</text>
</g>
<!-- 秦穆公&#45;&gt;蹇叔 -->
<g id="edge3" class="edge">
<title>秦穆公&#45;&gt;蹇叔</title>
<path fill="none" stroke="black" d="M898.03,-591.35C874.07,-622.02 825.37,-684.34 797.9,-719.51"/>
<polygon fill="black" stroke="black" points="794.79,-717.79 791.4,-727.83 800.31,-722.1 794.79,-717.79"/>
</g>
<!-- 丕豹 -->
<g id="node9" class="node">
<title>丕豹</title>
<ellipse fill="none" stroke="black" cx="1100.2" cy="-627.97" rx="40.09" ry="18"/>
<text text-anchor="middle" x="1100.2" y="-624.27" font-family="Times,serif" font-size="14.00">Pi Bao</text>
</g>
<!-- 秦穆公&#45;&gt;丕豹 -->
<g id="edge4" class="edge">
<title>秦穆公&#45;&gt;丕豹</title>
<path fill="none" stroke="black" d="M962.04,-587.8C991.54,-596.37 1028.52,-607.13 1056.8,-615.35"/>
<polygon fill="black" stroke="black" points="1055.84,-618.72 1066.42,-618.15 1057.79,-612 1055.84,-618.72"/>
</g>
<!-- 公孙支 -->
<g id="node10" class="node">
<title>公孙支</title>
<ellipse fill="none" stroke="black" cx="957.55" cy="-621.57" rx="69.59" ry="18"/>
<text text-anchor="middle" x="957.55" y="-617.87" font-family="Times,serif" font-size="14.00">Gongsun Zhi</text>
</g>
<!-- 秦穆公&#45;&gt;公孙支 -->
<g id="edge5" class="edge">
<title>秦穆公&#45;&gt;公孙支</title>
<path fill="none" stroke="black" d="M928.79,-590.99C930.4,-592.69 932.05,-594.45 933.7,-596.21"/>
<polygon fill="black" stroke="black" points="931.5,-598.98 940.9,-603.86 936.6,-594.18 931.5,-598.98"/>
</g>
<!-- 求士 -->
<g id="node28" class="node">
<title>求士</title>
<ellipse fill="none" stroke="black" cx="885.77" cy="-529.26" rx="64.99" ry="18"/>
<text text-anchor="middle" x="885.77" y="-525.56" font-family="Times,serif" font-size="14.00">Seek Talent</text>
</g>
<!-- 秦穆公&#45;&gt;求士 -->
<g id="edge6" class="edge">
<title>秦穆公&#45;&gt;求士</title>
<path fill="none" stroke="black" d="M901.41,-555.38C901.36,-555.29 901.31,-555.21 901.26,-555.13"/>
<polygon fill="black" stroke="black" points="904.71,-554.07 896.57,-547.29 898.71,-557.67 904.71,-554.07"/>
</g>
<!-- 秦孝公 -->
<g id="node2" class="node">
<title>秦孝公</title>
<ellipse fill="none" stroke="black" cx="248.74" cy="-289.01" rx="88.28" ry="18"/>
<text text-anchor="middle" x="248.74" y="-285.31" font-family="Times,serif" font-size="14.00">Duke Xiao of Qin</text>
</g>
<!-- 商鞅 -->
<g id="node11" class="node">
<title>商鞅</title>
<ellipse fill="none" stroke="black" cx="169.28" cy="-335.3" rx="65.79" ry="18"/>
<text text-anchor="middle" x="169.28" y="-331.6" font-family="Times,serif" font-size="14.00">Shang Yang</text>
</g>
<!-- 秦孝公&#45;&gt;商鞅 -->
<g id="edge7" class="edge">
<title>秦孝公&#45;&gt;商鞅</title>
<path fill="none" stroke="black" d="M219.15,-306.25C214.91,-308.72 210.5,-311.29 206.14,-313.83"/>
<polygon fill="black" stroke="black" points="204.19,-310.91 197.31,-318.97 207.72,-316.96 204.19,-310.91"/>
</g>
<!-- 秦国 -->
<g id="node14" class="node">
<title>秦国</title>
<ellipse fill="none" stroke="black" cx="475.1" cy="-271.93" rx="54.69" ry="18"/>
<text text-anchor="middle" x="475.1" y="-268.23" font-family="Times,serif" font-size="14.00">Qin State</text>
</g>
<!-- 秦孝公&#45;&gt;秦国 -->
<g id="edge8" class="edge">
<title>秦孝公&#45;&gt;秦国</title>
<path fill="none" stroke="black" d="M331.74,-282.75C358.14,-280.75 386.89,-278.58 411.67,-276.71"/>
<polygon fill="black" stroke="black" points="411.97,-280.2 421.67,-275.96 411.44,-273.22 411.97,-280.2"/>
</g>
<!-- 变法 -->
<g id="node29" class="node">
<title>变法</title>
<ellipse fill="none" stroke="black" cx="44.77" cy="-282.13" rx="44.69" ry="18"/>
<text text-anchor="middle" x="44.77" y="-278.43" font-family="Times,serif" font-size="14.00">Reform</text>
</g>
<!-- 秦孝公&#45;&gt;变法 -->
<g id="edge9" class="edge">
<title>秦孝公&#45;&gt;变法</title>
<path fill="none" stroke="black" d="M161.35,-286.06C140.46,-285.36 118.73,-284.62 99.78,-283.98"/>
<polygon fill="black" stroke="black" points="99.66,-280.48 89.55,-283.64 99.43,-287.47 99.66,-280.48"/>
</g>
<!-- 秦惠王 -->
<g id="node3" class="node">
<title>秦惠王</title>
<ellipse fill="none" stroke="black" cx="695.58" cy="-293.36" rx="82.59" ry="18"/>
<text text-anchor="middle" x="695.58" y="-289.66" font-family="Times,serif" font-size="14.00">King Hui of Qin</text>
</g>
<!-- 张仪 -->
<g id="node12" class="node">
<title>张仪</title>
<ellipse fill="none" stroke="black" cx="890.36" cy="-349.06" rx="51.99" ry="18"/>
<text text-anchor="middle" x="890.36" y="-345.36" font-family="Times,serif" font-size="14.00">Zhang Yi</text>
</g>
<!-- 秦惠王&#45;&gt;张仪 -->
<g id="edge10" class="edge">
<title>秦惠王&#45;&gt;张仪</title>
<path fill="none" stroke="black" d="M745.74,-307.71C774.78,-316.01 811.21,-326.43 840.24,-334.73"/>
<polygon fill="black" stroke="black" points="839.6,-338.18 850.18,-337.57 841.52,-331.45 839.6,-338.18"/>
</g>
<!-- 秦惠王&#45;&gt;秦国 -->
<g id="edge11" class="edge">
<title>秦惠王&#45;&gt;秦国</title>
<path fill="none" stroke="black" d="M620.01,-286.02C593.16,-283.41 563.25,-280.5 537.61,-278"/>
<polygon fill="black" stroke="black" points="537.93,-274.52 527.64,-277.04 537.26,-281.49 537.93,-274.52"/>
</g>
<!-- 拔三川之地 -->
<g id="node30" class="node">
<title>拔三川之地</title>
<ellipse fill="none" stroke="black" cx="763.9" cy="-247.24" rx="110.48" ry="18"/>
<text text-anchor="middle" x="763.9" y="-243.54" font-family="Times,serif" font-size="14.00">Capture Three Rivers</text>
</g>
<!-- 秦惠王&#45;&gt;拔三川之地 -->
<g id="edge12" class="edge">
<title>秦惠王&#45;&gt;拔三川之地</title>
<path fill="none" stroke="black" d="M721.02,-276.19C723.75,-274.34 726.56,-272.45 729.38,-270.55"/>
<polygon fill="black" stroke="black" points="731.42,-273.39 737.76,-264.89 727.51,-267.58 731.42,-273.39"/>
</g>
<!-- 秦昭王 -->
<g id="node4" class="node">
<title>秦昭王</title>
<ellipse fill="none" stroke="black" cx="455.35" cy="-218.04" rx="89.08" ry="18"/>
<text text-anchor="middle" x="455.35" y="-214.34" font-family="Times,serif" font-size="14.00">King Zhao of Qin</text>
</g>
<!-- 范雎 -->
<g id="node13" class="node">
<title>范雎</title>
<ellipse fill="none" stroke="black" cx="445.65" cy="-17.57" rx="40.09" ry="18"/>
<text text-anchor="middle" x="445.65" y="-13.87" font-family="Times,serif" font-size="14.00">Fan Ju</text>
</g>
<!-- 秦昭王&#45;&gt;范雎 -->
<g id="edge13" class="edge">
<title>秦昭王&#45;&gt;范雎</title>
<path fill="none" stroke="black" d="M454.47,-199.9C452.78,-164.88 449.04,-87.73 447.02,-45.89"/>
<polygon fill="black" stroke="black" points="450.51,-45.64 446.53,-35.82 443.52,-45.97 450.51,-45.64"/>
</g>
<!-- 秦昭王&#45;&gt;秦国 -->
<g id="edge14" class="edge">
<title>秦昭王&#45;&gt;秦国</title>
<path fill="none" stroke="black" d="M462.03,-236.29C462.97,-238.83 463.94,-241.49 464.92,-244.17"/>
<polygon fill="black" stroke="black" points="461.69,-245.52 468.42,-253.7 468.26,-243.11 461.69,-245.52"/>
</g>
<!-- 蚕食诸侯 -->
<g id="node31" class="node">
<title>蚕食诸侯</title>
<ellipse fill="none" stroke="black" cx="427.9" cy="-174.03" rx="131.88" ry="18"/>
<text text-anchor="middle" x="427.9" y="-170.33" font-family="Times,serif" font-size="14.00">Encroach on Feudal Lords</text>
</g>
<!-- 秦昭王&#45;&gt;蚕食诸侯 -->
<g id="edge15" class="edge">
<title>秦昭王&#45;&gt;蚕食诸侯</title>
<path fill="none" stroke="black" d="M444.18,-200.14C444.13,-200.06 444.08,-199.98 444.03,-199.89"/>
<polygon fill="black" stroke="black" points="447.41,-198.69 439.14,-192.06 441.47,-202.4 447.41,-198.69"/>
</g>
<!-- 李斯 -->
<g id="node5" class="node">
<title>李斯</title>
<ellipse fill="none" stroke="black" cx="501.61" cy="-361.9" rx="31.7" ry="18"/>
<text text-anchor="middle" x="501.61" y="-358.2" font-family="Times,serif" font-size="14.00">Li Si</text>
</g>
<!-- 李斯&#45;&gt;秦国 -->
<g id="edge16" class="edge">
<title>李斯&#45;&gt;秦国</title>
<path fill="none" stroke="black" d="M496.37,-344.13C492.65,-331.52 487.59,-314.34 483.34,-299.9"/>
<polygon fill="black" stroke="black" points="486.6,-298.58 480.41,-289.97 479.88,-300.56 486.6,-298.58"/>
</g>
<!-- 逐客令 -->
<g id="node32" class="node">
<title>逐客令</title>
<ellipse fill="none" stroke="black" cx="496.52" cy="-317.89" rx="102.88" ry="18"/>
<text text-anchor="middle" x="496.52" y="-314.19" font-family="Times,serif" font-size="14.00">Expel Guests Order</text>
</g>
<!-- 李斯&#45;&gt;逐客令 -->
<g id="edge17" class="edge">
<title>李斯&#45;&gt;逐客令</title>
<path fill="none" stroke="black" d="M499.51,-343.75C499.49,-343.59 499.47,-343.43 499.45,-343.27"/>
<polygon fill="black" stroke="black" points="503.24,-345.53 498.61,-336 496.28,-346.34 503.24,-345.53"/>
</g>
<!-- 戎 -->
<g id="node15" class="node">
<title>戎</title>
<ellipse fill="none" stroke="black" cx="1088.97" cy="-269.79" rx="34.39" ry="18"/>
<text text-anchor="middle" x="1088.97" y="-266.09" font-family="Times,serif" font-size="14.00">Rong</text>
</g>
<!-- 由余&#45;&gt;戎 -->
<g id="edge18" class="edge">
<title>由余&#45;&gt;戎</title>
<path fill="none" stroke="black" d="M1026.95,-377.98C1039.15,-356.69 1059.88,-320.53 1073.99,-295.93"/>
<polygon fill="black" stroke="black" points="1077.1,-297.53 1079.04,-287.12 1071.03,-294.05 1077.1,-297.53"/>
</g>
<!-- 宛 -->
<g id="node16" class="node">
<title>宛</title>
<ellipse fill="none" stroke="black" cx="590.36" cy="-437.01" rx="30.59" ry="18"/>
<text text-anchor="middle" x="590.36" y="-433.31" font-family="Times,serif" font-size="14.00">Wan</text>
</g>
<!-- 百里奚&#45;&gt;宛 -->
<g id="edge19" class="edge">
<title>百里奚&#45;&gt;宛</title>
<path fill="none" stroke="black" d="M691.84,-478.93C671.76,-470.63 645.6,-459.83 624.87,-451.27"/>
<polygon fill="black" stroke="black" points="626.06,-447.97 615.48,-447.39 623.39,-454.44 626.06,-447.97"/>
</g>
<!-- 宋 -->
<g id="node17" class="node">
<title>宋</title>
<ellipse fill="none" stroke="black" cx="682.4" cy="-854.1" rx="34.39" ry="18"/>
<text text-anchor="middle" x="682.4" y="-850.4" font-family="Times,serif" font-size="14.00">Song</text>
</g>
<!-- 蹇叔&#45;&gt;宋 -->
<g id="edge20" class="edge">
<title>蹇叔&#45;&gt;宋</title>
<path fill="none" stroke="black" d="M762.53,-762.65C746.52,-780.92 721.32,-809.69 703.45,-830.08"/>
<polygon fill="black" stroke="black" points="700.72,-827.88 696.77,-837.71 705.99,-832.49 700.72,-827.88"/>
</g>
<!-- 晋 -->
<g id="node18" class="node">
<title>晋</title>
<ellipse fill="none" stroke="black" cx="1070.81" cy="-732.33" rx="27" ry="18"/>
<text text-anchor="middle" x="1070.81" y="-728.63" font-family="Times,serif" font-size="14.00">Jin</text>
</g>
<!-- 丕豹&#45;&gt;晋 -->
<g id="edge21" class="edge">
<title>丕豹&#45;&gt;晋</title>
<path fill="none" stroke="black" d="M1095.08,-646.15C1090.53,-662.31 1083.81,-686.18 1078.59,-704.71"/>
<polygon fill="black" stroke="black" points="1075.21,-703.79 1075.87,-714.36 1081.95,-705.69 1075.21,-703.79"/>
</g>
<!-- 公孙支&#45;&gt;晋 -->
<g id="edge22" class="edge">
<title>公孙支&#45;&gt;晋</title>
<path fill="none" stroke="black" d="M975.5,-639.12C995.16,-658.35 1026.75,-689.24 1048.12,-710.14"/>
<polygon fill="black" stroke="black" points="1045.89,-712.86 1055.49,-717.35 1050.79,-707.86 1045.89,-712.86"/>
</g>
<!-- 秦国&#45;&gt;逐客令 -->
<g id="edge23" class="edge">
<title>秦国&#45;&gt;逐客令</title>
<path fill="none" stroke="black" d="M483.44,-289.83C483.53,-290.03 483.63,-290.23 483.72,-290.44"/>
<polygon fill="black" stroke="black" points="480.62,-292.07 488.02,-299.66 486.97,-289.11 480.62,-292.07"/>
</g>
<!-- 楚 -->
<g id="node19" class="node">
<title>楚</title>
<ellipse fill="none" stroke="black" cx="561.24" cy="-17.64" rx="29.5" ry="18"/>
<text text-anchor="middle" x="561.24" y="-13.94" font-family="Times,serif" font-size="14.00">Chu</text>
</g>
<!-- 魏 -->
<g id="node20" class="node">
<title>魏</title>
<ellipse fill="none" stroke="black" cx="672.24" cy="-17.64" rx="27.9" ry="18"/>
<text text-anchor="middle" x="672.24" y="-13.94" font-family="Times,serif" font-size="14.00">Wei</text>
</g>
<!-- 巴 -->
<g id="node21" class="node">
<title>巴</title>
<ellipse fill="none" stroke="black" cx="699.24" cy="-381.64" rx="27" ry="18"/>
<text text-anchor="middle" x="699.24" y="-377.94" font-family="Times,serif" font-size="14.00">Ba</text>
</g>
<!-- 蜀 -->
<g id="node22" class="node">
<title>蜀</title>
<ellipse fill="none" stroke="black" cx="392.24" cy="-409.64" rx="28.7" ry="18"/>
<text text-anchor="middle" x="392.24" y="-405.94" font-family="Times,serif" font-size="14.00">Shu</text>
</g>
<!-- 上郡 -->
<g id="node23" class="node">
<title>上郡</title>
<ellipse fill="none" stroke="black" cx="608.24" cy="-101.64" rx="104.78" ry="18"/>
<text text-anchor="middle" x="608.24" y="-97.94" font-family="Times,serif" font-size="14.00">Shang Commandery</text>
</g>
<!-- 汉中 -->
<g id="node24" class="node">
<title>汉中</title>
<ellipse fill="none" stroke="black" cx="674.24" cy="-185.64" rx="57.69" ry="18"/>
<text text-anchor="middle" x="674.24" y="-181.94" font-family="Times,serif" font-size="14.00">Hanzhong</text>
</g>
<!-- 鄢 -->
<g id="node25" class="node">
<title>鄢</title>
<ellipse fill="none" stroke="black" cx="307.24" cy="-17.64" rx="27.1" ry="18"/>
<text text-anchor="middle" x="307.24" y="-13.94" font-family="Times,serif" font-size="14.00">Yan</text>
</g>
<!-- 郢 -->
<g id="node26" class="node">
<title>郢</title>
<ellipse fill="none" stroke="black" cx="283.24" cy="-437.64" rx="31.4" ry="18"/>
<text text-anchor="middle" x="283.24" y="-433.94" font-family="Times,serif" font-size="14.00">Ying</text>
</g>
<!-- 成皋 -->
<g id="node27" class="node">
<title>成皋</title>
<ellipse fill="none" stroke="black" cx="365.24" cy="-101.64" rx="57.39" ry="18"/>
<text text-anchor="middle" x="365.24" y="-97.94" font-family="Times,serif" font-size="14.00">Chenggao</text>
</g>
</g>
</svg>
