<?xml version="1.0" encoding="UTF-8" standalone="no"?>
<!DOCTYPE svg PUBLIC "-//W3C//DTD SVG 1.1//EN"
 "http://www.w3.org/Graphics/SVG/1.1/DTD/svg11.dtd">
<!-- Generated by graphviz version 2.43.0 (0)
 -->
<!-- Title: SpringAutumn Pages: 1 -->
<svg width="889pt" height="760pt"
 viewBox="0.00 0.00 889.26 760.38" xmlns="http://www.w3.org/2000/svg" xmlns:xlink="http://www.w3.org/1999/xlink">
<g id="graph0" class="graph" transform="scale(1 1) rotate(0) translate(4 756.38)">
<title>SpringAutumn</title>
<polygon fill="white" stroke="transparent" points="-4,4 -4,-756.38 885.26,-756.38 885.26,4 -4,4"/>
<!-- Zhou -->
<g id="node1" class="node">
<title>Zhou</title>
<ellipse fill="pink" stroke="red" cx="272.87" cy="-352.07" rx="38.19" ry="38.19"/>
<text text-anchor="middle" x="272.87" y="-348.37" font-family="SimSun" font-size="14.00">周天子</text>
</g>
<!-- Lu -->
<g id="node2" class="node">
<title>Lu</title>
<ellipse fill="lightgreen" stroke="green" cx="612.41" cy="-387.61" rx="20.3" ry="20.3"/>
<text text-anchor="middle" x="612.41" y="-383.91" font-family="SimSun" font-size="14.00">鲁</text>
</g>
<!-- Lu&#45;&gt;Zhou -->
<g id="edge1" class="edge">
<title>Lu&#45;&gt;Zhou</title>
<path fill="none" stroke="black" d="M592.18,-385.49C538.3,-379.85 390.33,-364.36 316.27,-356.61"/>
<polygon fill="black" stroke="black" points="316.23,-354.85 311.07,-356.07 315.86,-358.33 316.23,-354.85"/>
<text text-anchor="middle" x="468.73" y="-374.85" font-family="Times,serif" font-size="14.00">宗主</text>
</g>
<!-- Wei -->
<g id="node3" class="node">
<title>Wei</title>
<ellipse fill="lightgreen" stroke="green" cx="409.67" cy="-365.03" rx="20.3" ry="20.3"/>
<text text-anchor="middle" x="409.67" y="-361.33" font-family="SimSun" font-size="14.00">卫</text>
</g>
<!-- Wei&#45;&gt;Zhou -->
<g id="edge2" class="edge">
<title>Wei&#45;&gt;Zhou</title>
<path fill="none" stroke="black" d="M389.48,-363.12C370.33,-361.3 340.92,-358.52 316.43,-356.19"/>
<polygon fill="black" stroke="black" points="316.42,-354.44 311.28,-355.71 316.09,-357.92 316.42,-354.44"/>
<text text-anchor="middle" x="338.46" y="-363.46" font-family="Times,serif" font-size="14.00">宗主</text>
</g>
<!-- Jin -->
<g id="node4" class="node">
<title>Jin</title>
<ellipse fill="lightgreen" stroke="green" cx="359.27" cy="-568.07" rx="20.3" ry="20.3"/>
<text text-anchor="middle" x="359.27" y="-564.37" font-family="SimSun" font-size="14.00">晋</text>
</g>
<!-- Jin&#45;&gt;Zhou -->
<g id="edge3" class="edge">
<title>Jin&#45;&gt;Zhou</title>
<path fill="none" stroke="black" d="M351.75,-549.28C337.86,-514.55 307.87,-439.58 289.14,-392.74"/>
<polygon fill="black" stroke="black" points="290.73,-392.01 287.25,-388.01 287.48,-393.31 290.73,-392.01"/>
<text text-anchor="middle" x="305.94" y="-474.81" font-family="Times,serif" font-size="14.00">宗主</text>
</g>
<!-- Zheng -->
<g id="node5" class="node">
<title>Zheng</title>
<ellipse fill="lightgreen" stroke="green" cx="365.75" cy="-341.99" rx="20.3" ry="20.3"/>
<text text-anchor="middle" x="365.75" y="-338.29" font-family="SimSun" font-size="14.00">郑</text>
</g>
<!-- Zheng&#45;&gt;Zhou -->
<g id="edge4" class="edge">
<title>Zheng&#45;&gt;Zhou</title>
<path fill="none" stroke="black" d="M345.59,-344.18C336.97,-345.11 326.55,-346.24 316.33,-347.35"/>
<polygon fill="black" stroke="black" points="316.11,-345.61 311.33,-347.89 316.49,-349.09 316.11,-345.61"/>
<text text-anchor="middle" x="330.96" y="-334.56" font-family="Times,serif" font-size="14.00">宗主</text>
</g>
<!-- Qi -->
<g id="node6" class="node">
<title>Qi</title>
<ellipse fill="lightyellow" stroke="yellow" cx="694.79" cy="-510.47" rx="20.3" ry="20.3"/>
<text text-anchor="middle" x="694.79" y="-506.77" font-family="SimSun" font-size="14.00">齐</text>
</g>
<!-- Qi&#45;&gt;Zhou -->
<g id="edge5" class="edge">
<title>Qi&#45;&gt;Zhou</title>
<path fill="none" stroke="black" stroke-dasharray="5,2" d="M675.84,-503.35C611.87,-479.34 402.92,-400.89 313.77,-367.42"/>
<polygon fill="black" stroke="black" points="314.14,-365.69 308.84,-365.57 312.91,-368.97 314.14,-365.69"/>
<text text-anchor="middle" x="480.3" y="-439.19" font-family="Times,serif" font-size="14.00">朝贡</text>
</g>
<!-- Chu -->
<g id="node7" class="node">
<title>Chu</title>
<ellipse fill="lightyellow" stroke="yellow" cx="257.75" cy="-43.19" rx="20.3" ry="20.3"/>
<text text-anchor="middle" x="257.75" y="-39.49" font-family="SimSun" font-size="14.00">楚</text>
</g>
<!-- Qi&#45;&gt;Chu -->
<g id="edge9" class="edge">
<title>Qi&#45;&gt;Chu</title>
<path fill="none" stroke="black" stroke-dasharray="1,5" d="M680.99,-495.71C616.7,-426.98 346.72,-138.32 275.2,-61.85"/>
<polygon fill="black" stroke="black" points="276.25,-60.4 271.55,-57.95 273.69,-62.8 276.25,-60.4"/>
<text text-anchor="middle" x="492.59" y="-282.58" font-family="Times,serif" font-size="14.00">敌对</text>
</g>
<!-- Chu&#45;&gt;Zhou -->
<g id="edge6" class="edge">
<title>Chu&#45;&gt;Zhou</title>
<path fill="none" stroke="black" stroke-dasharray="1,5" d="M258.74,-63.45C261.16,-112.9 267.41,-240.61 270.73,-308.36"/>
<polygon fill="black" stroke="black" points="268.99,-308.63 270.98,-313.53 272.49,-308.45 268.99,-308.63"/>
<text text-anchor="middle" x="250.23" y="-189.71" font-family="Times,serif" font-size="14.00">竞争</text>
</g>
<!-- Qin -->
<g id="node8" class="node">
<title>Qin</title>
<ellipse fill="lightyellow" stroke="yellow" cx="20.15" cy="-326.87" rx="20.3" ry="20.3"/>
<text text-anchor="middle" x="20.15" y="-323.17" font-family="SimSun" font-size="14.00">秦</text>
</g>
<!-- Qin&#45;&gt;Zhou -->
<g id="edge7" class="edge">
<title>Qin&#45;&gt;Zhou</title>
<path fill="none" stroke="black" stroke-dasharray="5,2" d="M40.4,-328.89C81.14,-332.95 173.79,-342.19 229.04,-347.7"/>
<polygon fill="black" stroke="black" points="229.11,-349.46 234.26,-348.22 229.46,-345.98 229.11,-349.46"/>
<text text-anchor="middle" x="120.22" y="-342.09" font-family="Times,serif" font-size="14.00">朝贡</text>
</g>
<!-- Qin&#45;&gt;Jin -->
<g id="edge10" class="edge">
<title>Qin&#45;&gt;Jin</title>
<path fill="none" stroke="black" d="M36.97,-338.83C93.48,-379.02 276.48,-509.19 338.5,-553.29"/>
<polygon fill="black" stroke="black" points="337.66,-554.85 342.75,-556.32 339.69,-552 337.66,-554.85"/>
<text text-anchor="middle" x="173.23" y="-449.86" font-family="Times,serif" font-size="14.00">联盟</text>
</g>
<!-- Wu -->
<g id="node9" class="node">
<title>Wu</title>
<ellipse fill="lightyellow" stroke="yellow" cx="861.11" cy="-113.75" rx="20.3" ry="20.3"/>
<text text-anchor="middle" x="861.11" y="-110.05" font-family="SimSun" font-size="14.00">吴</text>
</g>
<!-- Wu&#45;&gt;Zhou -->
<g id="edge8" class="edge">
<title>Wu&#45;&gt;Zhou</title>
<path fill="none" stroke="black" stroke-dasharray="1,5" d="M842.2,-121.41C759.57,-154.88 429.13,-288.76 313.26,-335.7"/>
<polygon fill="black" stroke="black" points="312.55,-334.1 308.57,-337.6 313.86,-337.35 312.55,-334.1"/>
<text text-anchor="middle" x="563.23" y="-232.36" font-family="Times,serif" font-size="14.00">竞争</text>
</g>
<!-- 秦 -->
<g id="node10" class="node">
<title>秦</title>
<ellipse fill="pink" stroke="darkred" cx="20.15" cy="-326.87" rx="20.3" ry="20.3"/>
<text text-anchor="middle" x="20.15" y="-323.17" font-family="SimSun" font-size="14.00">秦</text>
</g>
<!-- 齐 -->
<g id="node11" class="node">
<title>齐</title>
<ellipse fill="lightyellow" stroke="gold" cx="694.79" cy="-510.47" rx="20.3" ry="20.3"/>
<text text-anchor="middle" x="694.79" y="-506.77" font-family="SimSun" font-size="14.00">齐</text>
</g>
<!-- 楚 -->
<g id="node12" class="node">
<title>楚</title>
<ellipse fill="lightgreen" stroke="darkgreen" cx="257.75" cy="-43.19" rx="20.3" ry="20.3"/>
<text text-anchor="middle" x="257.75" y="-39.49" font-family="SimSun" font-size="14.00">楚</text>
</g>
<!-- 燕 -->
<g id="node13" class="node">
<title>燕</title>
<ellipse fill="lightblue" stroke="blue" cx="557.99" cy="-732.23" rx="20.3" ry="20.3"/>
<text text-anchor="middle" x="557.99" y="-728.53" font-family="SimSun" font-size="14.00">燕</text>
</g>
<!-- 赵 -->
<g id="node14" class="node">
<title>赵</title>
<ellipse fill="plum" stroke="purple" cx="359.27" cy="-568.07" rx="20.3" ry="20.3"/>
<text text-anchor="middle" x="359.27" y="-564.37" font-family="SimSun" font-size="14.00">赵</text>
</g>
<!-- 赵&#45;&gt;秦 -->
<g id="edge27" class="edge">
<title>赵&#45;&gt;秦</title>
<path fill="none" stroke="black" d="M342.45,-556.11C285.94,-515.91 102.93,-385.75 40.92,-341.64"/>
<polygon fill="black" stroke="black" points="41.76,-340.09 36.67,-338.62 39.73,-342.94 41.76,-340.09"/>
</g>
<!-- 赵&#45;&gt;齐 -->
<g id="edge28" class="edge">
<title>赵&#45;&gt;齐</title>
<path fill="none" stroke="black" d="M379.25,-564.64C437.3,-554.67 605.81,-525.74 669.77,-514.76"/>
<polygon fill="black" stroke="black" points="670.28,-516.45 674.91,-513.88 669.69,-513 670.28,-516.45"/>
</g>
<!-- 赵&#45;&gt;燕 -->
<g id="edge29" class="edge">
<title>赵&#45;&gt;燕</title>
<path fill="none" stroke="black" d="M374.86,-580.95C410.61,-610.49 498.46,-683.05 538.06,-715.77"/>
<polygon fill="black" stroke="black" points="537.22,-717.34 542.19,-719.18 539.45,-714.65 537.22,-717.34"/>
</g>
<!-- 魏 -->
<g id="node15" class="node">
<title>魏</title>
<ellipse fill="lightyellow" stroke="orange" cx="409.67" cy="-365.03" rx="20.3" ry="20.3"/>
<text text-anchor="middle" x="409.67" y="-361.33" font-family="SimSun" font-size="14.00">魏</text>
</g>
<!-- 赵&#45;&gt;魏 -->
<g id="edge30" class="edge">
<title>赵&#45;&gt;魏</title>
<path fill="none" stroke="black" d="M368.16,-549.61C380.59,-513.18 400.86,-432.05 408.05,-390.54"/>
<polygon fill="black" stroke="black" points="409.81,-390.66 408.9,-385.44 406.35,-390.09 409.81,-390.66"/>
</g>
<!-- 韩 -->
<g id="node16" class="node">
<title>韩</title>
<ellipse fill="tan" stroke="brown" cx="365.75" cy="-307.43" rx="20.3" ry="20.3"/>
<text text-anchor="middle" x="365.75" y="-303.73" font-family="SimSun" font-size="14.00">韩</text>
</g>
<!-- 赵&#45;&gt;韩 -->
<g id="edge31" class="edge">
<title>赵&#45;&gt;韩</title>
<path fill="none" stroke="black" d="M363.57,-548.14C368.53,-501.33 371.56,-384.41 369.31,-332.7"/>
<polygon fill="black" stroke="black" points="371.06,-332.52 369.06,-327.61 367.56,-332.69 371.06,-332.52"/>
</g>
<!-- 魏&#45;&gt;赵 -->
<g id="edge23" class="edge">
<title>魏&#45;&gt;赵</title>
<path fill="none" stroke="black" d="M400.78,-383.49C388.35,-419.91 368.07,-501.04 360.88,-542.55"/>
<polygon fill="black" stroke="black" points="359.13,-542.43 360.04,-547.65 362.58,-543.01 359.13,-542.43"/>
</g>
<!-- 魏&#45;&gt;韩 -->
<g id="edge24" class="edge">
<title>魏&#45;&gt;韩</title>
<path fill="none" stroke="black" d="M402.72,-345.92C398.02,-338.47 391.77,-330.08 385.71,-323.01"/>
<polygon fill="black" stroke="black" points="386.99,-321.82 382.37,-319.23 384.37,-324.14 386.99,-321.82"/>
</g>
<!-- 郑 -->
<g id="node18" class="node">
<title>郑</title>
<ellipse fill="lightblue" stroke="lightblue" cx="365.75" cy="-341.99" rx="20.3" ry="20.3"/>
<text text-anchor="middle" x="365.75" y="-338.29" font-family="SimSun" font-size="14.00">郑</text>
</g>
<!-- 魏&#45;&gt;郑 -->
<g id="edge25" class="edge">
<title>魏&#45;&gt;郑</title>
<path fill="none" stroke="black" d="M395.38,-350.06C393.75,-349.09 392.05,-348.15 390.33,-347.26"/>
<polygon fill="black" stroke="black" points="391.02,-345.65 385.76,-345.04 389.49,-348.8 391.02,-345.65"/>
</g>
<!-- 周天子 -->
<g id="node26" class="node">
<title>周天子</title>
<ellipse fill="lightyellow" stroke="yellow" cx="272.87" cy="-352.07" rx="38.19" ry="38.19"/>
<text text-anchor="middle" x="272.87" y="-348.37" font-family="SimSun" font-size="14.00">周天子</text>
</g>
<!-- 魏&#45;&gt;周天子 -->
<g id="edge26" class="edge">
<title>魏&#45;&gt;周天子</title>
<path fill="none" stroke="black" d="M389.48,-363.12C370.33,-361.3 340.92,-358.52 316.43,-356.19"/>
<polygon fill="black" stroke="black" points="316.42,-354.44 311.28,-355.71 316.09,-357.92 316.42,-354.44"/>
</g>
<!-- 韩&#45;&gt;秦 -->
<g id="edge15" class="edge">
<title>韩&#45;&gt;秦</title>
<path fill="none" stroke="black" d="M345.42,-308.57C285.89,-311.92 111.99,-321.7 45.98,-325.42"/>
<polygon fill="black" stroke="black" points="45.56,-323.69 40.67,-325.71 45.76,-327.18 45.56,-323.69"/>
</g>
<!-- 韩&#45;&gt;赵 -->
<g id="edge16" class="edge">
<title>韩&#45;&gt;赵</title>
<path fill="none" stroke="black" d="M361.44,-327.35C356.49,-374.16 353.45,-491.09 355.7,-542.79"/>
<polygon fill="black" stroke="black" points="353.96,-542.98 355.95,-547.89 357.46,-542.81 353.96,-542.98"/>
</g>
<!-- 韩&#45;&gt;魏 -->
<g id="edge17" class="edge">
<title>韩&#45;&gt;魏</title>
<path fill="none" stroke="black" d="M372.7,-326.54C377.4,-333.98 383.64,-342.37 389.71,-349.45"/>
<polygon fill="black" stroke="black" points="388.42,-350.64 393.05,-353.23 391.05,-348.32 388.42,-350.64"/>
</g>
<!-- 韩&#45;&gt;郑 -->
<g id="edge18" class="edge">
<title>韩&#45;&gt;郑</title>
<path fill="none" stroke="black" d="M359.04,-326.73C359.04,-326.79 359.04,-326.85 359.05,-326.91"/>
<polygon fill="black" stroke="black" points="357.07,-322.19 359.06,-327.1 360.57,-322.02 357.07,-322.19"/>
</g>
<!-- 宋 -->
<g id="node17" class="node">
<title>宋</title>
<ellipse fill="lightgreen" stroke="lightgreen" cx="503.27" cy="-339.83" rx="20.3" ry="20.3"/>
<text text-anchor="middle" x="503.27" y="-336.13" font-family="SimSun" font-size="14.00">宋</text>
</g>
<!-- 宋&#45;&gt;齐 -->
<g id="edge19" class="edge">
<title>宋&#45;&gt;齐</title>
<path fill="none" stroke="black" d="M518.62,-353.5C553.3,-384.41 637.66,-459.57 675.67,-493.43"/>
<polygon fill="black" stroke="black" points="674.73,-494.94 679.63,-496.96 677.06,-492.33 674.73,-494.94"/>
</g>
<!-- 宋&#45;&gt;魏 -->
<g id="edge20" class="edge">
<title>宋&#45;&gt;魏</title>
<path fill="none" stroke="black" d="M483.42,-345.17C469.05,-349.04 449.54,-354.29 434.2,-358.42"/>
<polygon fill="black" stroke="black" points="433.54,-356.79 429.17,-359.78 434.45,-360.17 433.54,-356.79"/>
</g>
<!-- 宋&#45;&gt;郑 -->
<g id="edge21" class="edge">
<title>宋&#45;&gt;郑</title>
<path fill="none" stroke="black" d="M483.49,-335.24C458.94,-333.31 417.08,-333.82 390.45,-336.27"/>
<polygon fill="black" stroke="black" points="390.14,-334.54 385.34,-336.78 390.49,-338.02 390.14,-334.54"/>
</g>
<!-- 宋&#45;&gt;周天子 -->
<g id="edge22" class="edge">
<title>宋&#45;&gt;周天子</title>
<path fill="none" stroke="black" d="M482.82,-340.91C445.66,-342.89 366.3,-347.1 316.49,-349.75"/>
<polygon fill="black" stroke="black" points="316.37,-348 311.47,-350.02 316.56,-351.5 316.37,-348"/>
</g>
<!-- 郑&#45;&gt;魏 -->
<g id="edge12" class="edge">
<title>郑&#45;&gt;魏</title>
<path fill="none" stroke="black" d="M380.03,-356.95C381.67,-357.92 383.37,-358.86 385.09,-359.75"/>
<polygon fill="black" stroke="black" points="384.4,-361.36 389.66,-361.98 385.93,-358.22 384.4,-361.36"/>
</g>
<!-- 郑&#45;&gt;韩 -->
<g id="edge13" class="edge">
<title>郑&#45;&gt;韩</title>
<path fill="none" stroke="black" d="M372.46,-322.69C372.45,-322.63 372.45,-322.56 372.45,-322.5"/>
<polygon fill="black" stroke="black" points="374.42,-327.23 372.44,-322.32 370.93,-327.39 374.42,-327.23"/>
</g>
<!-- 郑&#45;&gt;宋 -->
<g id="edge11" class="edge">
<title>郑&#45;&gt;宋</title>
<path fill="none" stroke="black" d="M385.53,-346.58C410.07,-348.51 451.93,-347.99 478.57,-345.55"/>
<polygon fill="black" stroke="black" points="478.88,-347.28 483.68,-345.03 478.53,-343.79 478.88,-347.28"/>
</g>
<!-- 郑&#45;&gt;周天子 -->
<g id="edge14" class="edge">
<title>郑&#45;&gt;周天子</title>
<path fill="none" stroke="black" d="M345.59,-344.18C336.97,-345.11 326.55,-346.24 316.33,-347.35"/>
<polygon fill="black" stroke="black" points="316.11,-345.61 311.33,-347.89 316.49,-349.09 316.11,-345.61"/>
</g>
<!-- 鲁 -->
<g id="node19" class="node">
<title>鲁</title>
<ellipse fill="lightgreen" stroke="green" cx="612.41" cy="-387.61" rx="20.3" ry="20.3"/>
<text text-anchor="middle" x="612.41" y="-383.91" font-family="SimSun" font-size="14.00">鲁</text>
</g>
<!-- 曲阜 -->
<g id="node20" class="node">
<title>曲阜</title>
<ellipse fill="lightgreen" stroke="lime" cx="599.75" cy="-422.63" rx="29.5" ry="29.5"/>
<text text-anchor="middle" x="599.75" y="-418.93" font-family="SimSun" font-size="14.00">曲阜</text>
</g>
<!-- 曲阜&#45;&gt;鲁 -->
<g id="edge39" class="edge">
<title>曲阜&#45;&gt;鲁</title>
<path fill="none" stroke="black" d="M609.72,-395.03C609.75,-394.97 609.77,-394.9 609.79,-394.83"/>
<polygon fill="black" stroke="black" points="609.81,-399.93 609.87,-394.63 606.52,-398.74 609.81,-399.93"/>
</g>
<!-- 吴 -->
<g id="node21" class="node">
<title>吴</title>
<ellipse fill="lightyellow" stroke="darkorange" cx="861.11" cy="-113.75" rx="20.3" ry="20.3"/>
<text text-anchor="middle" x="861.11" y="-110.05" font-family="SimSun" font-size="14.00">吴</text>
</g>
<!-- 吴&#45;&gt;楚 -->
<g id="edge40" class="edge">
<title>吴&#45;&gt;楚</title>
<path fill="none" stroke="black" d="M841.03,-111.4C750.84,-100.85 383.11,-57.85 283.01,-46.14"/>
<polygon fill="black" stroke="black" points="283.07,-44.39 277.9,-45.54 282.66,-47.86 283.07,-44.39"/>
</g>
<!-- 越 -->
<g id="node22" class="node">
<title>越</title>
<ellipse fill="lightblue" stroke="teal" cx="858.23" cy="-20.15" rx="20.3" ry="20.3"/>
<text text-anchor="middle" x="858.23" y="-16.45" font-family="SimSun" font-size="14.00">越</text>
</g>
<!-- 吴&#45;&gt;越 -->
<g id="edge41" class="edge">
<title>吴&#45;&gt;越</title>
<path fill="none" stroke="black" d="M860.48,-93.44C860.05,-79.46 859.48,-60.77 859.02,-45.76"/>
<polygon fill="black" stroke="black" points="860.75,-45.36 858.85,-40.42 857.26,-45.47 860.75,-45.36"/>
</g>
<!-- 越&#45;&gt;楚 -->
<g id="edge42" class="edge">
<title>越&#45;&gt;楚</title>
<path fill="none" stroke="black" d="M837.91,-20.93C747.64,-24.39 383.07,-38.38 283.17,-42.21"/>
<polygon fill="black" stroke="black" points="283,-40.47 278.07,-42.41 283.13,-43.97 283,-40.47"/>
</g>
<!-- 陈 -->
<g id="node23" class="node">
<title>陈</title>
<ellipse fill="lightgray" stroke="lightgray" cx="446.39" cy="-288.71" rx="20.3" ry="20.3"/>
<text text-anchor="middle" x="446.39" y="-285.01" font-family="SimSun" font-size="14.00">陈</text>
</g>
<!-- 陈&#45;&gt;楚 -->
<g id="edge32" class="edge">
<title>陈&#45;&gt;楚</title>
<path fill="none" stroke="black" d="M434.01,-272.6C400.83,-229.42 309.94,-111.12 273.33,-63.47"/>
<polygon fill="black" stroke="black" points="274.61,-62.26 270.17,-59.36 271.83,-64.39 274.61,-62.26"/>
</g>
<!-- 陈&#45;&gt;宋 -->
<g id="edge33" class="edge">
<title>陈&#45;&gt;宋</title>
<path fill="none" stroke="black" d="M461.63,-302.41C468.52,-308.6 476.73,-315.98 484.03,-322.54"/>
<polygon fill="black" stroke="black" points="483.09,-324.05 487.98,-326.09 485.43,-321.45 483.09,-324.05"/>
</g>
<!-- 陈&#45;&gt;郑 -->
<g id="edge34" class="edge">
<title>陈&#45;&gt;郑</title>
<path fill="none" stroke="black" d="M429.29,-300.01C416.99,-308.13 400.33,-319.14 387.15,-327.85"/>
<polygon fill="black" stroke="black" points="386.03,-326.49 382.83,-330.71 387.96,-329.41 386.03,-326.49"/>
</g>
<!-- 虞 -->
<g id="node24" class="node">
<title>虞</title>
<ellipse fill="lightgray" stroke="gray" cx="223.91" cy="-492.47" rx="20.3" ry="20.3"/>
<text text-anchor="middle" x="223.91" y="-488.77" font-family="SimSun" font-size="14.00">虞</text>
</g>
<!-- 虞&#45;&gt;赵 -->
<g id="edge35" class="edge">
<title>虞&#45;&gt;赵</title>
<path fill="none" stroke="black" d="M241.6,-502.35C266.13,-516.05 310.43,-540.79 337.12,-555.7"/>
<polygon fill="black" stroke="black" points="336.35,-557.27 341.57,-558.18 338.06,-554.22 336.35,-557.27"/>
</g>
<!-- 虞&#45;&gt;韩 -->
<g id="edge36" class="edge">
<title>虞&#45;&gt;韩</title>
<path fill="none" stroke="black" d="M236.25,-476.37C262.02,-442.74 321.55,-365.09 350.02,-327.94"/>
<polygon fill="black" stroke="black" points="351.68,-328.65 353.34,-323.62 348.91,-326.52 351.68,-328.65"/>
</g>
<!-- 虢 -->
<g id="node25" class="node">
<title>虢</title>
<ellipse fill="lightgray" stroke="gray" cx="162.71" cy="-344.87" rx="20.3" ry="20.3"/>
<text text-anchor="middle" x="162.71" y="-341.17" font-family="SimSun" font-size="14.00">虢</text>
</g>
<!-- 虢&#45;&gt;秦 -->
<g id="edge37" class="edge">
<title>虢&#45;&gt;秦</title>
<path fill="none" stroke="black" d="M142.59,-342.33C117.01,-339.1 72.85,-333.52 45.14,-330.02"/>
<polygon fill="black" stroke="black" points="45.35,-328.29 40.17,-329.4 44.91,-331.76 45.35,-328.29"/>
</g>
<!-- 虢&#45;&gt;韩 -->
<g id="edge38" class="edge">
<title>虢&#45;&gt;韩</title>
<path fill="none" stroke="black" d="M182.55,-341.21C219.69,-334.36 299.68,-319.61 340.57,-312.07"/>
<polygon fill="black" stroke="black" points="341.23,-313.73 345.83,-311.1 340.6,-310.29 341.23,-313.73"/>
</g>
</g>
</svg>
